<?xml version="1.0" encoding="utf-8"?>
<!-- Generator: Adobe Illustrator 17.0.0, SVG Export Plug-In . SVG Version: 6.00 Build 0)  -->
<!DOCTYPE svg PUBLIC "-//W3C//DTD SVG 1.1//EN" "http://www.w3.org/Graphics/SVG/1.1/DTD/svg11.dtd">
<svg version="1.1" xmlns="http://www.w3.org/2000/svg" xmlns:xlink="http://www.w3.org/1999/xlink" x="0px" y="0px" width="2469px"
	 height="1073.246px" viewBox="0 0 2469 1073.246" enable-background="new 0 0 2469 1073.246" xml:space="preserve">
<g id="Background">
	<rect y="0" fill="#F0F0F0" width="2469" height="1073.246"/>
	<line fill="none" stroke="#E4E4E4" stroke-miterlimit="10" x1="0" y1="177.04" x2="2469" y2="177.04"/>
	<line fill="none" stroke="#E4E4E4" stroke-miterlimit="10" x1="0" y1="356.681" x2="2469" y2="356.681"/>
	<line fill="none" stroke="#E4E4E4" stroke-miterlimit="10" x1="0" y1="534.085" x2="2469" y2="534.085"/>
	<line fill="none" stroke="#E4E4E4" stroke-miterlimit="10" x1="0" y1="714.085" x2="2469" y2="714.085"/>
	<line fill="none" stroke="#E4E4E4" stroke-miterlimit="10" x1="0" y1="894.085" x2="2469" y2="894.085"/>
</g>
<g id="AW">
	<g>
		<circle fill="#FFFFFF" stroke="#00263A" stroke-miterlimit="10" cx="1253.388" cy="177.04" r="75"/>
		<g>
			<text transform="matrix(1 0 0 1 1200.0847 175.667)"><tspan x="0" y="0" fill="#4D4D4D" font-family="'Arial-BoldMT'" font-size="14">Group Financial </tspan><tspan x="19.838" y="20" fill="#4D4D4D" font-family="'Arial-BoldMT'" font-size="14">Controller</tspan></text>
		</g>
	</g>
	<g>
		<circle fill="#FFFFFF" stroke="#00263A" stroke-miterlimit="10" cx="563.416" cy="356.681" r="75"/>
		<g>
			<text transform="matrix(1 0 0 1 522.5474 360.3081)" fill="#4D4D4D" font-family="'Arial-BoldMT'" font-size="14">Tax Director</text>
		</g>
	</g>
	<g>
		<circle fill="#FFFFFF" stroke="#00263A" stroke-miterlimit="10" cx="383.416" cy="534.085" r="75"/>
		<g>
			<text transform="matrix(1 0 0 1 340.6025 537.7125)" fill="#4D4D4D" font-family="'Arial-BoldMT'" font-size="14">Tax Manager</text>
		</g>
	</g>
	<g>
		<circle fill="#FFFFFF" stroke="#00263A" stroke-miterlimit="10" cx="743.416" cy="534.085" r="75"/>
		<g>
			<text transform="matrix(1 0 0 1 694.7681 537.7125)" fill="#4D4D4D" font-family="'Arial-BoldMT'" font-size="14">VAT Specialist</text>
		</g>
	</g>
	<g>
		<circle fill="#FFFFFF" stroke="#00263A" stroke-miterlimit="10" cx="563.416" cy="534.085" r="75"/>
		<g>
			<text transform="matrix(1 0 0 1 529.9473 534.3087)"><tspan x="0" y="0" fill="#4D4D4D" font-family="'Arial-BoldMT'" font-size="14">Corporate </tspan><tspan x="0.766" y="20" fill="#4D4D4D" font-family="'Arial-BoldMT'" font-size="14">Specialist</tspan></text>
		</g>
	</g>
	<g>
		<circle fill="#FFFFFF" stroke="#00263A" stroke-miterlimit="10" cx="383.416" cy="714.085" r="75"/>
		<g>
			<text transform="matrix(1 0 0 1 335.9404 714.3087)"><tspan x="0" y="0" fill="#4D4D4D" font-family="'Arial-BoldMT'" font-size="14">Corporate Tax </tspan><tspan x="18.659" y="20" fill="#4D4D4D" font-family="'Arial-BoldMT'" font-size="14">Preparer</tspan></text>
		</g>
	</g>
	<g>
		<circle fill="#FFFFFF" stroke="#00263A" stroke-miterlimit="10" cx="743.416" cy="714.085" r="75"/>
		<g>
			<text transform="matrix(1 0 0 1 698.6543 717.7125)" fill="#4D4D4D" font-family="'Arial-BoldMT'" font-size="14">VAT Preparer</text>
		</g>
	</g>
	<g>
		<circle fill="#FFFFFF" stroke="#00263A" stroke-miterlimit="10" cx="952.5" cy="714.085" r="75"/>
		<g>
			<text transform="matrix(1 0 0 1 922.907 711.4883)"><tspan x="0" y="0" fill="#4D4D4D" font-family="'Arial-BoldMT'" font-size="14">Treasury </tspan><tspan x="-8.928" y="20" fill="#4D4D4D" font-family="'Arial-BoldMT'" font-size="14">Accountant</tspan></text>
		</g>
	</g>
	<g>
		<circle fill="#FFFFFF" stroke="#00263A" stroke-miterlimit="10" cx="953.416" cy="356.681" r="75"/>
		<g>
			<text transform="matrix(1 0 0 1 904.7852 354.3081)"><tspan x="0" y="0" fill="#4D4D4D" font-family="'Arial-BoldMT'" font-size="14">Head of Group </tspan><tspan x="19.038" y="20" fill="#4D4D4D" font-family="'Arial-BoldMT'" font-size="14">Treasury</tspan></text>
		</g>
	</g>
	<g>
		<circle fill="#FFFFFF" stroke="#00263A" stroke-miterlimit="10" cx="953.362" cy="536.681" r="75"/>
		<g>
			<text transform="matrix(1 0 0 1 923.7688 534.3087)"><tspan x="0" y="0" fill="#4D4D4D" font-family="'Arial-BoldMT'" font-size="14">Treasury </tspan><tspan x="0.786" y="20" fill="#4D4D4D" font-family="'Arial-BoldMT'" font-size="14">Manager</tspan></text>
		</g>
	</g>
	<g>
		<circle fill="#FFFFFF" stroke="#00263A" stroke-miterlimit="10" cx="1163.362" cy="536.681" r="75"/>
		<g>
			<text transform="matrix(1 0 0 1 1134.5447 534.3087)"><tspan x="0" y="0" fill="#4D4D4D" font-family="'Arial-BoldMT'" font-size="14">Systems </tspan><tspan x="-9.704" y="20" fill="#4D4D4D" font-family="'Arial-BoldMT'" font-size="14">Accountant</tspan></text>
		</g>
	</g>
	<g>
		<circle fill="#FFFFFF" stroke="#00263A" stroke-miterlimit="10" cx="1343.362" cy="536.681" r="75"/>
		<g>
			<text transform="matrix(1 0 0 1 1287.3479 534.085)"><tspan x="0" y="0" fill="#4D4D4D" font-family="'Arial-BoldMT'" font-size="14">Group Reporting </tspan><tspan x="27.207" y="20" fill="#4D4D4D" font-family="'Arial-BoldMT'" font-size="14">Manager</tspan></text>
		</g>
	</g>
	<g>
		<circle fill="#FFFFFF" stroke="#00263A" stroke-miterlimit="10" cx="1913.341" cy="536.681" r="75"/>
		<g>
			<text transform="matrix(1 0 0 1 1864.3167 534.085)"><tspan x="0" y="0" fill="#4D4D4D" font-family="'Arial-BoldMT'" font-size="14">Risk and Audit </tspan><tspan x="20.217" y="20" fill="#4D4D4D" font-family="'Arial-BoldMT'" font-size="14">Manager</tspan></text>
		</g>
	</g>
	<g>
		<circle fill="#FFFFFF" stroke="#00263A" stroke-miterlimit="10" cx="1343.362" cy="714.085" r="75"/>
		<g>
			<text transform="matrix(1 0 0 1 1287.3479 711.4883)"><tspan x="0" y="0" fill="#4D4D4D" font-family="'Arial-BoldMT'" font-size="14">Group Reporting </tspan><tspan x="17.493" y="20" fill="#4D4D4D" font-family="'Arial-BoldMT'" font-size="14">Accountant</tspan></text>
		</g>
	</g>
	<g>
		<circle fill="#FFFFFF" stroke="#00263A" stroke-miterlimit="10" cx="1342.569" cy="894.085" r="75"/>
		<g>
			<text transform="matrix(1 0 0 1 1309.4966 891.4883)"><tspan x="0" y="0" fill="#4D4D4D" font-family="'Arial-BoldMT'" font-size="14">Reporting </tspan><tspan x="-5.448" y="20" fill="#4D4D4D" font-family="'Arial-BoldMT'" font-size="14">Accountant</tspan></text>
		</g>
	</g>
	<g>
		<circle fill="#FFFFFF" stroke="#00263A" stroke-miterlimit="10" cx="1522.569" cy="894.085" r="75"/>
		<g>
			<text transform="matrix(1 0 0 1 1469.2656 891.4883)"><tspan x="0" y="0" fill="#4D4D4D" font-family="'Arial-BoldMT'" font-size="14">Group Financial </tspan><tspan x="14.783" y="20" fill="#4D4D4D" font-family="'Arial-BoldMT'" font-size="14">Accountant</tspan></text>
		</g>
	</g>
	<g>
		<circle fill="#FFFFFF" stroke="#00263A" stroke-miterlimit="10" cx="1523.362" cy="536.681" r="75"/>
		<g>
			<text transform="matrix(1 0 0 1 1470.0583 524.085)"><tspan x="0" y="0" fill="#4D4D4D" font-family="'Arial-BoldMT'" font-size="14">Group Financial </tspan><tspan x="14.786" y="20" fill="#4D4D4D" font-family="'Arial-BoldMT'" font-size="14">Accounting </tspan><tspan x="24.497" y="40" fill="#4D4D4D" font-family="'Arial-BoldMT'" font-size="14">Manager</tspan></text>
		</g>
	</g>
	<g>
		<circle fill="#FFFFFF" stroke="#00263A" stroke-miterlimit="10" cx="1163.362" cy="356.681" r="75"/>
		<g>
			<text transform="matrix(1 0 0 1 1105.386 344.3081)"><tspan x="0" y="0" fill="#4D4D4D" font-family="'Arial-BoldMT'" font-size="14">Head of Financial </tspan><tspan x="14.01" y="20" fill="#4D4D4D" font-family="'Arial-BoldMT'" font-size="14">Planning and </tspan><tspan x="26.831" y="40" fill="#4D4D4D" font-family="'Arial-BoldMT'" font-size="14">Analytics</tspan></text>
		</g>
	</g>
	<g>
		<circle fill="#FFFFFF" stroke="#00263A" stroke-miterlimit="10" cx="1343.362" cy="356.681" r="75"/>
		<g>
			<text transform="matrix(1 0 0 1 1294.7307 354.3081)"><tspan x="0" y="0" fill="#4D4D4D" font-family="'Arial-BoldMT'" font-size="14">Head of Group </tspan><tspan x="22.159" y="20" fill="#4D4D4D" font-family="'Arial-BoldMT'" font-size="14">Finance</tspan></text>
		</g>
	</g>
	<g>
		<circle fill="#FFFFFF" stroke="#00263A" stroke-miterlimit="10" cx="1523.362" cy="356.681" r="75"/>
		<g>
			<text transform="matrix(1 0 0 1 1469.2756 354.3081)"><tspan x="0" y="0" fill="#4D4D4D" font-family="'Arial-BoldMT'" font-size="14">Head of Finance </tspan><tspan x="2.728" y="20" fill="#4D4D4D" font-family="'Arial-BoldMT'" font-size="14">Transformation</tspan></text>
		</g>
	</g>
	<g>
		<circle fill="#FFFFFF" stroke="#00263A" stroke-miterlimit="10" cx="1733.362" cy="356.681" r="75"/>
		<g>
			<text transform="matrix(1 0 0 1 1678.4963 354.3081)"><tspan x="0" y="0" fill="#4D4D4D" font-family="'Arial-BoldMT'" font-size="14">Head of Investor </tspan><tspan x="23.338" y="20" fill="#4D4D4D" font-family="'Arial-BoldMT'" font-size="14">Relations</tspan></text>
		</g>
	</g>
	<g>
		<circle fill="#FFFFFF" stroke="#00263A" stroke-miterlimit="10" cx="1913.362" cy="356.681" r="75"/>
		<g>
			<text transform="matrix(1 0 0 1 1856.5515 354.3081)"><tspan x="0" y="0" fill="#4D4D4D" font-family="'Arial-BoldMT'" font-size="14">Head of Risk and </tspan><tspan x="11.679" y="20" fill="#4D4D4D" font-family="'Arial-BoldMT'" font-size="14">Internal Audit</tspan></text>
		</g>
	</g>
	<g>
		<circle fill="#FFFFFF" stroke="#00263A" stroke-miterlimit="10" cx="2093.362" cy="356.681" r="75"/>
		<g>
			<text transform="matrix(1 0 0 1 2032.2791 354.3081)"><tspan x="0" y="0" fill="#4D4D4D" font-family="'Arial-BoldMT'" font-size="14">Head of Corporate </tspan><tspan x="34.61" y="20" fill="#4D4D4D" font-family="'Arial-BoldMT'" font-size="14">Finance</tspan></text>
		</g>
	</g>
	<g>
		<g>
			<line fill="none" stroke="#4D4D4D" stroke-miterlimit="10" x1="848.416" y1="281.681" x2="848.416" y2="283.681"/>
			
				<line fill="none" stroke="#4D4D4D" stroke-miterlimit="10" stroke-dasharray="4.0208,4.0208" x1="848.416" y1="287.702" x2="848.416" y2="969.235"/>
			<line fill="none" stroke="#4D4D4D" stroke-miterlimit="10" x1="848.416" y1="971.246" x2="848.416" y2="973.246"/>
		</g>
	</g>
	<g>
		<g>
			<line fill="none" stroke="#4D4D4D" stroke-miterlimit="10" x1="1058.362" y1="281.681" x2="1058.362" y2="283.681"/>
			
				<line fill="none" stroke="#4D4D4D" stroke-miterlimit="10" stroke-dasharray="4.0208,4.0208" x1="1058.362" y1="287.702" x2="1058.362" y2="969.235"/>
			<line fill="none" stroke="#4D4D4D" stroke-miterlimit="10" x1="1058.362" y1="971.246" x2="1058.362" y2="973.246"/>
		</g>
	</g>
	<g>
		<g>
			<line fill="none" stroke="#4D4D4D" stroke-miterlimit="10" x1="1628.362" y1="281.681" x2="1628.362" y2="283.681"/>
			
				<line fill="none" stroke="#4D4D4D" stroke-miterlimit="10" stroke-dasharray="4.0208,4.0208" x1="1628.362" y1="287.702" x2="1628.362" y2="969.235"/>
			<line fill="none" stroke="#4D4D4D" stroke-miterlimit="10" x1="1628.362" y1="971.246" x2="1628.362" y2="973.246"/>
		</g>
	</g>
	<g>
		<circle fill="#FFFFFF" stroke="#00263A" stroke-miterlimit="10" cx="563.416" cy="714.085" r="75"/>
		<g>
			<text transform="matrix(1 0 0 1 517.8784 714.085)" fill="#4D4D4D" font-family="'Arial-BoldMT'" font-size="14">Tax Assistant</text>
		</g>
	</g>
	<g>
		<circle fill="#FFFFFF" stroke="#00263A" stroke-miterlimit="10" cx="1162.569" cy="894.085" r="75"/>
		<g>
			<text transform="matrix(1 0 0 1 1108.8657 897.7125)" fill="#4D4D4D" font-family="'Arial-BoldMT'" font-size="14">Finance Analyst</text>
		</g>
	</g>
	<line fill="none" stroke="#008195" stroke-miterlimit="10" x1="458.416" y1="534.085" x2="488.416" y2="534.085"/>
	<line fill="none" stroke="#008195" stroke-miterlimit="10" x1="638.416" y1="534.085" x2="668.416" y2="534.085"/>
	<line fill="none" stroke="#008195" stroke-miterlimit="10" x1="1418.362" y1="534.085" x2="1448.362" y2="534.085"/>
	<line fill="none" stroke="#008195" stroke-miterlimit="10" x1="1238.367" y1="534.085" x2="1268.367" y2="534.085"/>
	<line fill="none" stroke="#008195" stroke-miterlimit="10" x1="458.416" y1="714.085" x2="488.416" y2="714.085"/>
	<line fill="none" stroke="#008195" stroke-miterlimit="10" x1="638.416" y1="714.085" x2="668.416" y2="714.085"/>
	<line fill="none" stroke="#008195" stroke-miterlimit="10" x1="563.416" y1="459.085" x2="563.416" y2="431.681"/>
	<line fill="none" stroke="#008195" stroke-miterlimit="10" x1="952.5" y1="461.681" x2="952.5" y2="431.681"/>
	<line fill="none" stroke="#008195" stroke-miterlimit="10" x1="563.416" y1="639.085" x2="563.416" y2="609.085"/>
	<line fill="none" stroke="#008195" stroke-miterlimit="10" x1="953.362" y1="639.085" x2="953.362" y2="611.681"/>
	<line fill="none" stroke="#008195" stroke-miterlimit="10" x1="1343.362" y1="639.085" x2="1343.362" y2="611.681"/>
	<path fill="none" stroke="#008195" stroke-miterlimit="10" d="M1163.362,431.681L1163.362,431.681c0,8.284,6.716,15,15,15h149.207
		c8.284,0,15,6.716,15,15"/>
	<path fill="none" stroke="#008195" stroke-miterlimit="10" d="M1344.155,461.681c0-8.284,6.716-15,15-15h149.207
		c8.284,0,15-6.716,15-15v0"/>
	<path fill="none" stroke="#008195" stroke-miterlimit="10" d="M1733.362,431.681L1733.362,431.681c0,8.284,6.716,15,15,15h149.207
		c8.284,0,15,6.716,15,15"/>
	<path fill="none" stroke="#008195" stroke-miterlimit="10" d="M1914.155,461.681c0-8.284,6.716-15,15-15h149.207
		c8.284,0,15-6.716,15-15v0"/>
	<path fill="none" stroke="#008195" stroke-miterlimit="10" d="M1523.362,819.085L1523.362,819.085c0-8.284-6.716-15-15-15h-149.207
		c-8.284,0-15-6.716-15-15"/>
	<path fill="none" stroke="#008195" stroke-miterlimit="10" d="M1342.569,789.085c0,8.284-6.716,15-15,15h-149.207
		c-8.284,0-15,6.716-15,15l0,0"/>
	<path fill="none" stroke="#008195" stroke-miterlimit="10" d="M2168.362,281.86L2168.362,281.86c0-8.284-6.716-15-15-15h-883.388
		c-8.284,0-15-6.716-15-15"/>
	<path fill="none" stroke="#008195" stroke-miterlimit="10" d="M1253.388,251.86c0,8.284-6.716,15-15,15H315.916
		c-8.284,0-15,6.716-15,15v0"/>
</g>
<g id="Label">
</g>
</svg>
