<?xml version="1.0" encoding="utf-8"?>
<!-- Generator: Adobe Illustrator 17.0.0, SVG Export Plug-In . SVG Version: 6.00 Build 0)  -->
<!DOCTYPE svg PUBLIC "-//W3C//DTD SVG 1.1//EN" "http://www.w3.org/Graphics/SVG/1.1/DTD/svg11.dtd">
<svg version="1.1" xmlns="http://www.w3.org/2000/svg" xmlns:xlink="http://www.w3.org/1999/xlink" x="0px" y="0px" width="1920px"
	 height="1614.746px" viewBox="0 0 1920 1614.746" enable-background="new 0 0 1920 1614.746" xml:space="preserve">
<g id="Background">
	<rect x="0" y="0" fill="#F0F0F0" width="1920" height="1614.746"/>
	<line fill="none" stroke="#E4E4E4" stroke-miterlimit="10" x1="0" y1="177.04" x2="1920" y2="177.04"/>
	<line fill="none" stroke="#E4E4E4" stroke-miterlimit="10" x1="0" y1="356.681" x2="1920" y2="356.681"/>
	<line fill="none" stroke="#E4E4E4" stroke-miterlimit="10" x1="0" y1="534.085" x2="1920" y2="534.085"/>
	<line fill="none" stroke="#E4E4E4" stroke-miterlimit="10" x1="0" y1="714.085" x2="1920" y2="714.085"/>
	<line fill="none" stroke="#E4E4E4" stroke-miterlimit="10" x1="0" y1="894.085" x2="1920" y2="894.085"/>
	<line fill="none" stroke="#E4E4E4" stroke-miterlimit="10" x1="0" y1="1074.585" x2="1920" y2="1074.585"/>
	<line fill="none" stroke="#E4E4E4" stroke-miterlimit="10" x1="0" y1="1255.085" x2="1920" y2="1255.085"/>
	<line fill="none" stroke="#E4E4E4" stroke-miterlimit="10" x1="0" y1="1435.585" x2="1920" y2="1435.585"/>
</g>
<g id="AW">
	<g>
		<line fill="none" stroke="#008195" stroke-miterlimit="10" x1="869.872" y1="638.726" x2="869.872" y2="609.085"/>
		<line fill="none" stroke="#008195" stroke-miterlimit="10" x1="510.01" y1="998.726" x2="510.01" y2="969.085"/>
		<line fill="none" stroke="#008195" stroke-miterlimit="10" x1="510.01" y1="1179.226" x2="510.01" y2="1149.585"/>
		<line fill="none" stroke="#008195" stroke-miterlimit="10" x1="510.01" y1="1359.726" x2="510.01" y2="1330.085"/>
		<line fill="none" stroke="#008195" stroke-miterlimit="10" x1="690.01" y1="1179.226" x2="690.01" y2="1149.585"/>
		<line fill="none" stroke="#008195" stroke-miterlimit="10" x1="870.01" y1="1179.226" x2="870.01" y2="1149.585"/>
		<line fill="none" stroke="#008195" stroke-miterlimit="10" x1="870.01" y1="1360.585" x2="870.01" y2="1330.943"/>
		<line fill="none" stroke="#008195" stroke-miterlimit="10" x1="869.872" y1="281.681" x2="869.872" y2="252.04"/>
		<line fill="none" stroke="#008195" stroke-miterlimit="10" x1="869.872" y1="459.085" x2="869.872" y2="431.681"/>
		<line fill="none" stroke="#008195" stroke-miterlimit="10" x1="945.01" y1="713.726" x2="1155.01" y2="713.726"/>
		<path fill="none" stroke="#008195" stroke-miterlimit="10" d="M1410.01,818.726L1410.01,818.726c0-8.284-6.716-15-15-15h-149.207
			c-8.284,0-15-6.716-15-15"/>
		<path fill="none" stroke="#008195" stroke-miterlimit="10" d="M1229.218,788.726c0,8.284-6.716,15-15,15H1065.01
			c-8.284,0-15,6.716-15,15v0"/>
		<polyline fill="none" stroke="#008195" stroke-miterlimit="10" points="585.01,894.085 869.872,894.085 869.872,788.726 		"/>
		<line fill="none" stroke="#008195" stroke-miterlimit="10" x1="584.99" y1="1074.585" x2="615.01" y2="1074.585"/>
		<line fill="none" stroke="#008195" stroke-miterlimit="10" x1="764.99" y1="1074.585" x2="795.01" y2="1074.585"/>
		<line fill="none" stroke="#008195" stroke-miterlimit="10" x1="584.99" y1="1255.085" x2="615.01" y2="1255.085"/>
		<line fill="none" stroke="#008195" stroke-miterlimit="10" x1="584.99" y1="1435.585" x2="795.01" y2="1435.585"/>
		<line fill="none" stroke="#008195" stroke-miterlimit="10" x1="764.99" y1="1255.085" x2="795.01" y2="1255.085"/>
		<g>
			<circle fill="#FFFFFF" stroke="#00263A" stroke-miterlimit="10" cx="869.898" cy="177.04" r="75"/>
			<g>
				<text transform="matrix(1 0 0 1 820.0915 175.667)"><tspan x="0" y="0" fill="#4D4D4D" font-family="'Arial-BoldMT'" font-size="14">Chief Financial </tspan><tspan x="27.224" y="20" fill="#4D4D4D" font-family="'Arial-BoldMT'" font-size="14">Officer</tspan></text>
			</g>
		</g>
		<g>
			<circle fill="#FFFFFF" stroke="#00263A" stroke-miterlimit="10" cx="870.01" cy="534.085" r="75"/>
			<g>
				<text transform="matrix(1 0 0 1 812.0344 521.4888)"><tspan x="0" y="0" fill="#4D4D4D" font-family="'Arial-BoldMT'" font-size="14">Head of Finance / </tspan><tspan x="-1.565" y="20" fill="#4D4D4D" font-family="'Arial-BoldMT'" font-size="14">Finance Business </tspan><tspan x="33.445" y="40" fill="#4D4D4D" font-family="'Arial-BoldMT'" font-size="14">Partner</tspan></text>
			</g>
		</g>
		<g>
			<circle fill="#FFFFFF" stroke="#00263A" stroke-miterlimit="10" cx="870.01" cy="356.681" r="75"/>
			<g>
				<text transform="matrix(1 0 0 1 814.7516 360.0845)" fill="#4D4D4D" font-family="'Arial-BoldMT'" font-size="14">Finance Director</text>
			</g>
		</g>
		<g>
			<circle fill="#FFFFFF" stroke="#00263A" stroke-miterlimit="10" cx="1230.01" cy="713.726" r="75"/>
			<g>
				<text transform="matrix(1 0 0 1 1172.8075 717.1295)" fill="#4D4D4D" font-family="'Arial-BoldMT'" font-size="14">Finance Manager</text>
			</g>
		</g>
		<g>
			<circle fill="#FFFFFF" stroke="#00263A" stroke-miterlimit="10" cx="870.01" cy="1074.585" r="75"/>
			<g>
				<text transform="matrix(1 0 0 1 839.6481 1073.2124)"><tspan x="0" y="0" fill="#4D4D4D" font-family="'Arial-BoldMT'" font-size="14">Financial </tspan><tspan x="-8.159" y="20" fill="#4D4D4D" font-family="'Arial-BoldMT'" font-size="14">Accountant</tspan></text>
			</g>
		</g>
		<g>
			<circle fill="#FFFFFF" stroke="#00263A" stroke-miterlimit="10" cx="509.99" cy="1255.085" r="75"/>
			<g>
				<text transform="matrix(1 0 0 1 478.4585 1241.1162)"><tspan x="0" y="0" fill="#4D4D4D" font-family="'Arial-BoldMT'" font-size="14">Assistant </tspan><tspan x="-7.383" y="20" fill="#4D4D4D" font-family="'Arial-BoldMT'" font-size="14">Managment </tspan><tspan x="-6.99" y="40" fill="#4D4D4D" font-family="'Arial-BoldMT'" font-size="14">Accountant</tspan></text>
			</g>
		</g>
		<g>
			<circle fill="#FFFFFF" stroke="#00263A" stroke-miterlimit="10" cx="690.01" cy="1255.085" r="75"/>
			<g>
				<text transform="matrix(1 0 0 1 658.4791 1241.1162)"><tspan x="0" y="0" fill="#4D4D4D" font-family="'Arial-BoldMT'" font-size="14">Assistant </tspan><tspan x="-8.562" y="20" fill="#4D4D4D" font-family="'Arial-BoldMT'" font-size="14">Commercial </tspan><tspan x="-6.99" y="40" fill="#4D4D4D" font-family="'Arial-BoldMT'" font-size="14">Accountant</tspan></text>
			</g>
		</g>
		<g>
			<circle fill="#FFFFFF" stroke="#00263A" stroke-miterlimit="10" cx="509.99" cy="1435.585" r="75"/>
			<g>
				<text transform="matrix(1 0 0 1 485.0688 1421.6162)"><tspan x="0" y="0" fill="#4D4D4D" font-family="'Arial-BoldMT'" font-size="14">Trainee </tspan><tspan x="-17.886" y="20" fill="#4D4D4D" font-family="'Arial-BoldMT'" font-size="14">Management </tspan><tspan x="-13.6" y="40" fill="#4D4D4D" font-family="'Arial-BoldMT'" font-size="14">Accountant</tspan></text>
			</g>
		</g>
		<g>
			<circle fill="#FFFFFF" stroke="#00263A" stroke-miterlimit="10" cx="870.01" cy="1435.585" r="75"/>
			<g>
				<text transform="matrix(1 0 0 1 809.7033 1434.2124)"><tspan x="0" y="0" fill="#4D4D4D" font-family="'Arial-BoldMT'" font-size="14">Financial Account </tspan><tspan x="32.662" y="20" fill="#4D4D4D" font-family="'Arial-BoldMT'" font-size="14">Projects</tspan></text>
			</g>
		</g>
		<g>
			<circle fill="#FFFFFF" stroke="#00263A" stroke-miterlimit="10" cx="510.01" cy="894.085" r="75"/>
			<g>
				<text transform="matrix(1 0 0 1 447.3688 892.7125)"><tspan x="0" y="0" fill="#4D4D4D" font-family="'Arial-BoldMT'" font-size="14">Senior Managment </tspan><tspan x="24.121" y="20" fill="#4D4D4D" font-family="'Arial-BoldMT'" font-size="14">Accountant</tspan></text>
			</g>
		</g>
		<g>
			<circle fill="#FFFFFF" stroke="#00263A" stroke-miterlimit="10" cx="870.01" cy="713.726" r="75"/>
			<g>
				<text transform="matrix(1 0 0 1 804.2585 717.1295)" fill="#4D4D4D" font-family="'Arial-BoldMT'" font-size="14">Financial Controller</text>
			</g>
		</g>
		<g>
			<circle fill="#FFFFFF" stroke="#00263A" stroke-miterlimit="10" cx="690.01" cy="1074.585" r="75"/>
			<g>
				<text transform="matrix(1 0 0 1 649.9171 1073.2124)"><tspan x="0" y="0" fill="#4D4D4D" font-family="'Arial-BoldMT'" font-size="14">Commercial </tspan><tspan x="1.572" y="20" fill="#4D4D4D" font-family="'Arial-BoldMT'" font-size="14">Accountant</tspan></text>
			</g>
		</g>
		<g>
			<circle fill="#FFFFFF" stroke="#00263A" stroke-miterlimit="10" cx="509.99" cy="1074.585" r="75"/>
			<g>
				<text transform="matrix(1 0 0 1 467.1826 1073.2124)"><tspan x="0" y="0" fill="#4D4D4D" font-family="'Arial-BoldMT'" font-size="14">Management </tspan><tspan x="4.286" y="20" fill="#4D4D4D" font-family="'Arial-BoldMT'" font-size="14">Accountant</tspan></text>
			</g>
		</g>
		<g>
			<circle fill="#FFFFFF" stroke="#00263A" stroke-miterlimit="10" cx="870.01" cy="1255.085" r="75"/>
			<g>
				<text transform="matrix(1 0 0 1 838.4792 1241.1162)"><tspan x="0" y="0" fill="#4D4D4D" font-family="'Arial-BoldMT'" font-size="14">Assistant </tspan><tspan x="1.169" y="20" fill="#4D4D4D" font-family="'Arial-BoldMT'" font-size="14">Financial </tspan><tspan x="-6.99" y="40" fill="#4D4D4D" font-family="'Arial-BoldMT'" font-size="14">Accountant</tspan></text>
			</g>
		</g>
		<line fill="none" stroke="#008195" stroke-miterlimit="10" x1="1124.99" y1="1074.585" x2="1155.01" y2="1074.585"/>
		<line fill="none" stroke="#008195" stroke-miterlimit="10" x1="1304.99" y1="1074.585" x2="1335.01" y2="1074.585"/>
		<g>
			<circle fill="#FFFFFF" stroke="#00263A" stroke-miterlimit="10" cx="1230.01" cy="1074.585" r="75"/>
			<g>
				<text transform="matrix(1 0 0 1 1188.3729 1077.9878)" fill="#4D4D4D" font-family="'Arial-BoldMT'" font-size="14">BTC Analyst</text>
			</g>
		</g>
		<g>
			<circle fill="#FFFFFF" stroke="#00263A" stroke-miterlimit="10" cx="1050.01" cy="1074.585" r="75"/>
			<g>
				<text transform="matrix(1 0 0 1 992.4174 1077.9883)" fill="#4D4D4D" font-family="'Arial-BoldMT'" font-size="14">Financial Analyst</text>
			</g>
		</g>
		<g>
			<circle fill="#FFFFFF" stroke="#00263A" stroke-miterlimit="10" cx="1410.01" cy="1074.585" r="75"/>
			<g>
				<text transform="matrix(1 0 0 1 1368.7592 1077.9878)" fill="#4D4D4D" font-family="'Arial-BoldMT'" font-size="14">FPA Analyst</text>
			</g>
		</g>
	</g>
</g>
<g id="Label">
</g>
</svg>
